<svg width="164" height="20" viewBox="0 0 164 20" fill="none" xmlns="http://www.w3.org/2000/svg">
<path d="M10.4062 14.5352C10.4062 14.2305 10.3594 13.957 10.2656 13.7148C10.1797 13.4648 10.0156 13.2383 9.77344 13.0352C9.53125 12.8242 9.19141 12.6172 8.75391 12.4141C8.31641 12.2109 7.75 12 7.05469 11.7812C6.28125 11.5312 5.54688 11.25 4.85156 10.9375C4.16406 10.625 3.55469 10.2617 3.02344 9.84766C2.5 9.42578 2.08594 8.9375 1.78125 8.38281C1.48438 7.82812 1.33594 7.18359 1.33594 6.44922C1.33594 5.73828 1.49219 5.09375 1.80469 4.51562C2.11719 3.92969 2.55469 3.42969 3.11719 3.01562C3.67969 2.59375 4.34375 2.26953 5.10938 2.04297C5.88281 1.81641 6.73047 1.70312 7.65234 1.70312C8.91016 1.70312 10.0078 1.92969 10.9453 2.38281C11.8828 2.83594 12.6094 3.45703 13.125 4.24609C13.6484 5.03516 13.9102 5.9375 13.9102 6.95312H10.418C10.418 6.45312 10.3125 6.01562 10.1016 5.64062C9.89844 5.25781 9.58594 4.95703 9.16406 4.73828C8.75 4.51953 8.22656 4.41016 7.59375 4.41016C6.98438 4.41016 6.47656 4.50391 6.07031 4.69141C5.66406 4.87109 5.35938 5.11719 5.15625 5.42969C4.95312 5.73438 4.85156 6.07812 4.85156 6.46094C4.85156 6.75 4.92188 7.01172 5.0625 7.24609C5.21094 7.48047 5.42969 7.69922 5.71875 7.90234C6.00781 8.10547 6.36328 8.29688 6.78516 8.47656C7.20703 8.65625 7.69531 8.83203 8.25 9.00391C9.17969 9.28516 9.99609 9.60156 10.6992 9.95312C11.4102 10.3047 12.0039 10.6992 12.4805 11.1367C12.957 11.5742 13.3164 12.0703 13.5586 12.625C13.8008 13.1797 13.9219 13.8086 13.9219 14.5117C13.9219 15.2539 13.7773 15.918 13.4883 16.5039C13.1992 17.0898 12.7812 17.5859 12.2344 17.9922C11.6875 18.3984 11.0352 18.707 10.2773 18.918C9.51953 19.1289 8.67188 19.2344 7.73438 19.2344C6.89062 19.2344 6.05859 19.125 5.23828 18.9062C4.41797 18.6797 3.67188 18.3398 3 17.8867C2.33594 17.4336 1.80469 16.8555 1.40625 16.1523C1.00781 15.4492 0.808594 14.6172 0.808594 13.6562H4.33594C4.33594 14.1875 4.41797 14.6367 4.58203 15.0039C4.74609 15.3711 4.97656 15.668 5.27344 15.8945C5.57812 16.1211 5.9375 16.2852 6.35156 16.3867C6.77344 16.4883 7.23438 16.5391 7.73438 16.5391C8.34375 16.5391 8.84375 16.4531 9.23438 16.2812C9.63281 16.1094 9.92578 15.8711 10.1133 15.5664C10.3086 15.2617 10.4062 14.918 10.4062 14.5352ZM15.5625 12.7891V12.543C15.5625 11.6133 15.6953 10.7578 15.9609 9.97656C16.2266 9.1875 16.6133 8.50391 17.1211 7.92578C17.6289 7.34766 18.2539 6.89844 18.9961 6.57812C19.7383 6.25 20.5898 6.08594 21.5508 6.08594C22.5117 6.08594 23.3672 6.25 24.1172 6.57812C24.8672 6.89844 25.4961 7.34766 26.0039 7.92578C26.5195 8.50391 26.9102 9.1875 27.1758 9.97656C27.4414 10.7578 27.5742 11.6133 27.5742 12.543V12.7891C27.5742 13.7109 27.4414 14.5664 27.1758 15.3555C26.9102 16.1367 26.5195 16.8203 26.0039 17.4062C25.4961 17.9844 24.8711 18.4336 24.1289 18.7539C23.3867 19.0742 22.5352 19.2344 21.5742 19.2344C20.6133 19.2344 19.7578 19.0742 19.0078 18.7539C18.2656 18.4336 17.6367 17.9844 17.1211 17.4062C16.6133 16.8203 16.2266 16.1367 15.9609 15.3555C15.6953 14.5664 15.5625 13.7109 15.5625 12.7891ZM18.9375 12.543V12.7891C18.9375 13.3203 18.9844 13.8164 19.0781 14.2773C19.1719 14.7383 19.3203 15.1445 19.5234 15.4961C19.7344 15.8398 20.0078 16.1094 20.3438 16.3047C20.6797 16.5 21.0898 16.5977 21.5742 16.5977C22.043 16.5977 22.4453 16.5 22.7812 16.3047C23.1172 16.1094 23.3867 15.8398 23.5898 15.4961C23.793 15.1445 23.9414 14.7383 24.0352 14.2773C24.1367 13.8164 24.1875 13.3203 24.1875 12.7891V12.543C24.1875 12.0273 24.1367 11.543 24.0352 11.0898C23.9414 10.6289 23.7891 10.2227 23.5781 9.87109C23.375 9.51172 23.1055 9.23047 22.7695 9.02734C22.4336 8.82422 22.0273 8.72266 21.5508 8.72266C21.0742 8.72266 20.668 8.82422 20.332 9.02734C20.0039 9.23047 19.7344 9.51172 19.5234 9.87109C19.3203 10.2227 19.1719 10.6289 19.0781 11.0898C18.9844 11.543 18.9375 12.0273 18.9375 12.543ZM34.8867 16.5977C35.3008 16.5977 35.668 16.5195 35.9883 16.3633C36.3086 16.1992 36.5586 15.9727 36.7383 15.6836C36.9258 15.3867 37.0234 15.0391 37.0312 14.6406H40.207C40.1992 15.5312 39.9609 16.3242 39.4922 17.0195C39.0234 17.707 38.3945 18.25 37.6055 18.6484C36.8164 19.0391 35.9336 19.2344 34.957 19.2344C33.9727 19.2344 33.1133 19.0703 32.3789 18.7422C31.6523 18.4141 31.0469 17.9609 30.5625 17.3828C30.0781 16.7969 29.7148 16.1172 29.4727 15.3438C29.2305 14.5625 29.1094 13.7266 29.1094 12.8359V12.4961C29.1094 11.5977 29.2305 10.7617 29.4727 9.98828C29.7148 9.20703 30.0781 8.52734 30.5625 7.94922C31.0469 7.36328 31.6523 6.90625 32.3789 6.57812C33.1055 6.25 33.957 6.08594 34.9336 6.08594C35.9727 6.08594 36.8828 6.28516 37.6641 6.68359C38.4531 7.08203 39.0703 7.65234 39.5156 8.39453C39.9688 9.12891 40.1992 10 40.207 11.0078H37.0312C37.0234 10.5859 36.9336 10.2031 36.7617 9.85938C36.5977 9.51562 36.3555 9.24219 36.0352 9.03906C35.7227 8.82812 35.3359 8.72266 34.875 8.72266C34.3828 8.72266 33.9805 8.82812 33.668 9.03906C33.3555 9.24219 33.1133 9.52344 32.9414 9.88281C32.7695 10.2344 32.6484 10.6367 32.5781 11.0898C32.5156 11.5352 32.4844 12.0039 32.4844 12.4961V12.8359C32.4844 13.3281 32.5156 13.8008 32.5781 14.2539C32.6406 14.707 32.7578 15.1094 32.9297 15.4609C33.1094 15.8125 33.3555 16.0898 33.668 16.293C33.9805 16.4961 34.3867 16.5977 34.8867 16.5977ZM45.7266 6.32031V19H42.3398V6.32031H45.7266ZM42.1289 3.01562C42.1289 2.52344 42.3008 2.11719 42.6445 1.79688C42.9883 1.47656 43.4492 1.31641 44.0273 1.31641C44.5977 1.31641 45.0547 1.47656 45.3984 1.79688C45.75 2.11719 45.9258 2.52344 45.9258 3.01562C45.9258 3.50781 45.75 3.91406 45.3984 4.23438C45.0547 4.55469 44.5977 4.71484 44.0273 4.71484C43.4492 4.71484 42.9883 4.55469 42.6445 4.23438C42.3008 3.91406 42.1289 3.50781 42.1289 3.01562ZM55.3594 16.1406V10.4922C55.3594 10.0859 55.293 9.73828 55.1602 9.44922C55.0273 9.15234 54.8203 8.92188 54.5391 8.75781C54.2656 8.59375 53.9102 8.51172 53.4727 8.51172C53.0977 8.51172 52.7734 8.57812 52.5 8.71094C52.2266 8.83594 52.0156 9.01953 51.8672 9.26172C51.7188 9.49609 51.6445 9.77344 51.6445 10.0938H48.2695C48.2695 9.55469 48.3945 9.04297 48.6445 8.55859C48.8945 8.07422 49.2578 7.64844 49.7344 7.28125C50.2109 6.90625 50.7773 6.61328 51.4336 6.40234C52.0977 6.19141 52.8398 6.08594 53.6602 6.08594C54.6445 6.08594 55.5195 6.25 56.2852 6.57812C57.0508 6.90625 57.6523 7.39844 58.0898 8.05469C58.5352 8.71094 58.7578 9.53125 58.7578 10.5156V15.9414C58.7578 16.6367 58.8008 17.207 58.8867 17.6523C58.9727 18.0898 59.0977 18.4727 59.2617 18.8008V19H55.8516C55.6875 18.6562 55.5625 18.2266 55.4766 17.7109C55.3984 17.1875 55.3594 16.6641 55.3594 16.1406ZM55.8047 11.2773L55.8281 13.1875H53.9414C53.4961 13.1875 53.1094 13.2383 52.7812 13.3398C52.4531 13.4414 52.1836 13.5859 51.9727 13.7734C51.7617 13.9531 51.6055 14.1641 51.5039 14.4062C51.4102 14.6484 51.3633 14.9141 51.3633 15.2031C51.3633 15.4922 51.4297 15.7539 51.5625 15.9883C51.6953 16.2148 51.8867 16.3945 52.1367 16.5273C52.3867 16.6523 52.6797 16.7148 53.0156 16.7148C53.5234 16.7148 53.9648 16.6133 54.3398 16.4102C54.7148 16.207 55.0039 15.957 55.207 15.6602C55.418 15.3633 55.5273 15.082 55.5352 14.8164L56.4258 16.2461C56.3008 16.5664 56.1289 16.8984 55.9102 17.2422C55.6992 17.5859 55.4297 17.9102 55.1016 18.2148C54.7734 18.5117 54.3789 18.7578 53.918 18.9531C53.457 19.1406 52.9102 19.2344 52.2773 19.2344C51.4727 19.2344 50.7422 19.0742 50.0859 18.7539C49.4375 18.4258 48.9219 17.9766 48.5391 17.4062C48.1641 16.8281 47.9766 16.1719 47.9766 15.4375C47.9766 14.7734 48.1016 14.1836 48.3516 13.668C48.6016 13.1523 48.9688 12.7188 49.4531 12.3672C49.9453 12.0078 50.5586 11.7383 51.293 11.5586C52.0273 11.3711 52.8789 11.2773 53.8477 11.2773H55.8047ZM64.9219 1V19H61.5352V1H64.9219ZM87.7852 1.9375V19H84.2695L77.4141 7.5625V19H73.8984V1.9375H77.4141L84.2812 13.3867V1.9375H87.7852ZM96.4688 19.2344C95.4844 19.2344 94.6016 19.0781 93.8203 18.7656C93.0391 18.4453 92.375 18.0039 91.8281 17.4414C91.2891 16.8789 90.875 16.2266 90.5859 15.4844C90.2969 14.7344 90.1523 13.9375 90.1523 13.0938V12.625C90.1523 11.6641 90.2891 10.7852 90.5625 9.98828C90.8359 9.19141 91.2266 8.5 91.7344 7.91406C92.25 7.32812 92.875 6.87891 93.6094 6.56641C94.3438 6.24609 95.1719 6.08594 96.0938 6.08594C96.9922 6.08594 97.7891 6.23438 98.4844 6.53125C99.1797 6.82812 99.7617 7.25 100.23 7.79688C100.707 8.34375 101.066 9 101.309 9.76562C101.551 10.5234 101.672 11.3672 101.672 12.2969V13.7031H91.5938V11.4531H98.3555V11.1953C98.3555 10.7266 98.2695 10.3086 98.0977 9.94141C97.9336 9.56641 97.6836 9.26953 97.3477 9.05078C97.0117 8.83203 96.582 8.72266 96.0586 8.72266C95.6133 8.72266 95.2305 8.82031 94.9102 9.01562C94.5898 9.21094 94.3281 9.48438 94.125 9.83594C93.9297 10.1875 93.7812 10.6016 93.6797 11.0781C93.5859 11.5469 93.5391 12.0625 93.5391 12.625V13.0938C93.5391 13.6016 93.6094 14.0703 93.75 14.5C93.8984 14.9297 94.1055 15.3008 94.3711 15.6133C94.6445 15.9258 94.9727 16.168 95.3555 16.3398C95.7461 16.5117 96.1875 16.5977 96.6797 16.5977C97.2891 16.5977 97.8555 16.4805 98.3789 16.2461C98.9102 16.0039 99.3672 15.6406 99.75 15.1562L101.391 16.9375C101.125 17.3203 100.762 17.6875 100.301 18.0391C99.8477 18.3906 99.3008 18.6797 98.6602 18.9062C98.0195 19.125 97.2891 19.2344 96.4688 19.2344ZM109.805 6.32031V8.71094H102.422V6.32031H109.805ZM104.25 3.19141H107.625V15.1797C107.625 15.5469 107.672 15.8281 107.766 16.0234C107.867 16.2188 108.016 16.3555 108.211 16.4336C108.406 16.5039 108.652 16.5391 108.949 16.5391C109.16 16.5391 109.348 16.5312 109.512 16.5156C109.684 16.4922 109.828 16.4688 109.945 16.4453L109.957 18.9297C109.668 19.0234 109.355 19.0977 109.02 19.1523C108.684 19.207 108.312 19.2344 107.906 19.2344C107.164 19.2344 106.516 19.1133 105.961 18.8711C105.414 18.6211 104.992 18.2227 104.695 17.6758C104.398 17.1289 104.25 16.4102 104.25 15.5195V3.19141ZM115.348 15.7188L117.984 6.32031H120.129L119.438 10.0117L116.801 19H115.008L115.348 15.7188ZM114.012 6.32031L115.898 15.707L116.074 19H113.965L110.754 6.32031H114.012ZM122.543 15.5547L124.383 6.32031H127.652L124.441 19H122.344L122.543 15.5547ZM120.422 6.32031L123.047 15.6484L123.41 19H121.605L118.969 10.0234L118.301 6.32031H120.422ZM128.812 12.7891V12.543C128.812 11.6133 128.945 10.7578 129.211 9.97656C129.477 9.1875 129.863 8.50391 130.371 7.92578C130.879 7.34766 131.504 6.89844 132.246 6.57812C132.988 6.25 133.84 6.08594 134.801 6.08594C135.762 6.08594 136.617 6.25 137.367 6.57812C138.117 6.89844 138.746 7.34766 139.254 7.92578C139.77 8.50391 140.16 9.1875 140.426 9.97656C140.691 10.7578 140.824 11.6133 140.824 12.543V12.7891C140.824 13.7109 140.691 14.5664 140.426 15.3555C140.16 16.1367 139.77 16.8203 139.254 17.4062C138.746 17.9844 138.121 18.4336 137.379 18.7539C136.637 19.0742 135.785 19.2344 134.824 19.2344C133.863 19.2344 133.008 19.0742 132.258 18.7539C131.516 18.4336 130.887 17.9844 130.371 17.4062C129.863 16.8203 129.477 16.1367 129.211 15.3555C128.945 14.5664 128.812 13.7109 128.812 12.7891ZM132.188 12.543V12.7891C132.188 13.3203 132.234 13.8164 132.328 14.2773C132.422 14.7383 132.57 15.1445 132.773 15.4961C132.984 15.8398 133.258 16.1094 133.594 16.3047C133.93 16.5 134.34 16.5977 134.824 16.5977C135.293 16.5977 135.695 16.5 136.031 16.3047C136.367 16.1094 136.637 15.8398 136.84 15.4961C137.043 15.1445 137.191 14.7383 137.285 14.2773C137.387 13.8164 137.438 13.3203 137.438 12.7891V12.543C137.438 12.0273 137.387 11.543 137.285 11.0898C137.191 10.6289 137.039 10.2227 136.828 9.87109C136.625 9.51172 136.355 9.23047 136.02 9.02734C135.684 8.82422 135.277 8.72266 134.801 8.72266C134.324 8.72266 133.918 8.82422 133.582 9.02734C133.254 9.23047 132.984 9.51172 132.773 9.87109C132.57 10.2227 132.422 10.6289 132.328 11.0898C132.234 11.543 132.188 12.0273 132.188 12.543ZM146.273 9.08594V19H142.898V6.32031H146.074L146.273 9.08594ZM150.094 6.23828L150.035 9.36719C149.871 9.34375 149.672 9.32422 149.438 9.30859C149.211 9.28516 149.004 9.27344 148.816 9.27344C148.34 9.27344 147.926 9.33594 147.574 9.46094C147.23 9.57812 146.941 9.75391 146.707 9.98828C146.48 10.2227 146.309 10.5078 146.191 10.8438C146.082 11.1797 146.02 11.5625 146.004 11.9922L145.324 11.7812C145.324 10.9609 145.406 10.207 145.57 9.51953C145.734 8.82422 145.973 8.21875 146.285 7.70312C146.605 7.1875 146.996 6.78906 147.457 6.50781C147.918 6.22656 148.445 6.08594 149.039 6.08594C149.227 6.08594 149.418 6.10156 149.613 6.13281C149.809 6.15625 149.969 6.19141 150.094 6.23828ZM155.062 0.988281V19H151.688V0.988281H155.062ZM163.055 6.32031L157.547 12.6016L154.594 15.5898L153.363 13.1523L155.707 10.1758L159 6.32031H163.055ZM159.551 19L155.801 13.1406L158.133 11.1016L163.441 19H159.551Z" fill="#6200EE"/>
</svg>
